<svg data-v-0dd9719b="" version="1.0" width="100%" height="100%" viewBox="83.75 65.139 175.291 130.423" preserveAspectRatio="xMidYMid meet" color-interpolation-filters="sRGB" style="margin: auto;" xmlns="http://www.w3.org/2000/svg">
    <rect data-v-0dd9719b="" x="0" y="0" width="100%" height="100%" fill="url(#watermark)" fill-opacity="1" class="watermarklayer"></rect>
    <defs v-gra="od">
      <filter id="b5e92ee4-0dfb-43f7-be98-7248edac4a6b" filterUnits="userSpaceOnUse">
        <feColorMatrix type="matrix" values="0 0 0 0 0.99609375  0 0 0 0 0.99609375  0 0 0 0 0.99609375  0 0 0 1 0"></feColorMatrix>
      </filter>
      <linearGradient x1="0" y1="1" x2="1" y2="0" id="kwAF-DpIRiV2U4Xj_JfzR">
        <stop offset="0" stop-color="#007fb8"></stop>
        <stop offset="0.3333" stop-color="#006b9c"></stop>
        <stop offset="0.6667" stop-color="#004d70"></stop>
        <stop offset="1" stop-color="#fccc05"></stop>
      </linearGradient>
    </defs>
    <defs v-gra="id"></defs>
    <mask v-gra="im" id="9a7189f3-52e6-47ed-b8d6-084cc9c581ec">
      <g class="iconsvg-imagesvg" filter="url(#b5e92ee4-0dfb-43f7-be98-7248edac4a6b)">
        <g>
          <rect fill="#007FB8" fill-opacity="0" stroke-width="2" x="0" y="0" width="60" height="48.72265441021227" class="image-rect"></rect>
          <svg x="0" y="0" width="60" height="48.72265441021227" filtersec="colorsb8106763789" class="image-svg-svg primary" style="overflow: visible;">
            <svg xmlns="http://www.w3.org/2000/svg" viewBox="0.21885693073272705 0.009949733503162861 121.42166137695312 98.60005187988281">
              <title>Spendly</title>
              <path d="M44 27.88a20.28 20.28 0 0 1-3.4-10.95l-9 13.35L2.84 72.92a16.55 16.55 0 0 0 27.43 18.51l.87-1.28a1.3 1.3 0 0 1 .18-.23L58.6 49.45zM56.79.5c-.27.07-.56.14-.83.23s-.65.21-1 .33-.62.24-.93.37a17.83 17.83 0 0 0-2.52 1.41l-.42.3a3.58 3.58 0 0 0-.39.29c-.37.28-.51.39-.64.51-.39.33-.69.61-1 .9s-.56.59-.81.88-.4.48-.57.7-.45.59-.66.89a16.6 16.6 0 0 0 0 18.51l21.63 32a2.11 2.11 0 0 1 .18.32l6.47 9.55 15.38-25v-.05l3.63-5.89L79.25 14.3a2.43 2.43 0 0 1-.14-.2l-4.59-6.8a16.67 16.67 0 0 0-2-2.44c-.23-.23-.47-.47-.74-.7a18.83 18.83 0 0 0-1.72-1.34c-.19-.13-.43-.27-.67-.42s-.63-.38-.92-.53h-.08l-.19-.09c-.2-.1-.41-.21-.62-.3a17.31 17.31 0 0 0-2.84-1l-.92-.2c-.34-.05-.68-.11-1-.15s-.66-.07-1-.09a15.51 15.51 0 0 0-1.93 0q-.51 0-1 .09c-.32 0-.58.07-.85.12h-.26l-.62.14" fill="#007FB8"></path>
              <path d="M118.73 91.54a16.55 16.55 0 0 0 .08-18.63L96.68 40.13l-2.76 4.48-33.22 54h45.08a16.43 16.43 0 0 0 12.8-6.92" fill="#eb6621"></path>
            </svg>
          </svg>
        </g>
      </g>
    </mask>
    <g data-v-0dd9719b="" fill="#007FB8" class="mojosvg mojo-g" transform="matrix(1, 0, 0, 1, 93.715166, 85.649698)">
      <g class="iconsvg-imagesvg" transform="translate(47.67974090576172,0)" mask="url(#9a7189f3-52e6-47ed-b8d6-084cc9c581ec)">
        <g>
          <rect fill="#007FB8" fill-opacity="0" stroke-width="2" x="0" y="0" width="60" height="48.72265441021227" class="image-rect"></rect>
          <svg x="0" y="0" width="60" height="48.72265441021227" filtersec="colorsb8106763789" class="image-svg-svg primary" style="overflow: visible;">
            <svg xmlns="http://www.w3.org/2000/svg" viewBox="0.21885693073272705 0.009949733503162861 121.42166137695312 98.60005187988281">
              <title>Spendly</title>
              <path d="M44 27.88a20.28 20.28 0 0 1-3.4-10.95l-9 13.35L2.84 72.92a16.55 16.55 0 0 0 27.43 18.51l.87-1.28a1.3 1.3 0 0 1 .18-.23L58.6 49.45zM56.79.5c-.27.07-.56.14-.83.23s-.65.21-1 .33-.62.24-.93.37a17.83 17.83 0 0 0-2.52 1.41l-.42.3a3.58 3.58 0 0 0-.39.29c-.37.28-.51.39-.64.51-.39.33-.69.61-1 .9s-.56.59-.81.88-.4.48-.57.7-.45.59-.66.89a16.6 16.6 0 0 0 0 18.51l21.63 32a2.11 2.11 0 0 1 .18.32l6.47 9.55 15.38-25v-.05l3.63-5.89L79.25 14.3a2.43 2.43 0 0 1-.14-.2l-4.59-6.8a16.67 16.67 0 0 0-2-2.44c-.23-.23-.47-.47-.74-.7a18.83 18.83 0 0 0-1.72-1.34c-.19-.13-.43-.27-.67-.42s-.63-.38-.92-.53h-.08l-.19-.09c-.2-.1-.41-.21-.62-.3a17.31 17.31 0 0 0-2.84-1l-.92-.2c-.34-.05-.68-.11-1-.15s-.66-.07-1-.09a15.51 15.51 0 0 0-1.93 0q-.51 0-1 .09c-.32 0-.58.07-.85.12h-.26l-.62.14" fill="#007FB8"></path>
              <path d="M118.73 91.54a16.55 16.55 0 0 0 .08-18.63L96.68 40.13l-2.76 4.48-33.22 54h45.08a16.43 16.43 0 0 0 12.8-6.92" fill="#eb6621"></path>
            </svg>
          </svg>
        </g>
        <rect v-gra="id" width="72" height="60.72265625" transform="translate(-6, -6)" style="pointer-events:none;" fill="url(#kwAF-DpIRiV2U4Xj_JfzR)"></rect>
      </g>
      <g transform="translate(0,55.72265625)">
        <g class="tp-name">
          <g transform="translate(0, 0)">
            <g data-gra="path-name" fill="#007FB8" transform="translate(0,3)">
              <g transform="scale(1)">
                <path d="M18.40-34.27L18.23-29.67L17.69-29.67Q17.49-30.24 17.06-30.95Q16.63-31.66 15.93-32.29Q15.23-32.92 14.23-33.34Q13.24-33.75 11.88-33.75L11.88-33.75Q10.68-33.75 9.74-33.38Q8.81-33.02 8.18-32.35Q7.55-31.69 7.23-30.78Q6.91-29.87 6.91-28.76L6.91-28.76Q6.91-26.99 7.91-25.38Q8.91-23.77 10.41-22.19Q11.91-20.62 13.65-19.04Q15.40-17.47 16.90-15.77Q18.40-14.07 19.40-12.21Q20.40-10.36 20.40-8.22L20.40-8.22Q20.40-6.62 19.84-5.01Q19.29-3.40 18.13-2.12Q16.98-0.84 15.15-0.04Q13.33 0.76 10.82 0.76L10.82 0.76Q9.42 0.76 8.16 0.50Q6.89 0.25 5.82-0.14Q4.75-0.52 3.90-0.96Q3.05-1.40 2.51-1.77L2.51-1.77L3.08-7.21L3.69-7.21Q3.96-6.05 4.58-5.01Q5.19-3.96 6.09-3.16Q6.99-2.36 8.14-1.88Q9.30-1.40 10.68-1.40L10.68-1.40Q11.93-1.40 12.93-1.78Q13.92-2.16 14.64-2.84Q15.35-3.52 15.73-4.45Q16.11-5.39 16.11-6.49L16.11-6.49Q16.11-8.04 15.55-9.36Q14.98-10.68 14.06-11.86Q13.14-13.04 11.97-14.15Q10.80-15.25 9.57-16.37Q8.34-17.49 7.17-18.67Q6.00-19.85 5.08-21.19Q4.16-22.54 3.59-24.07Q3.03-25.61 3.03-27.46L3.03-27.46Q3.03-29.40 3.78-30.96Q4.53-32.52 5.77-33.63Q7.01-34.74 8.59-35.33Q10.16-35.92 11.83-35.92L11.83-35.92Q13.06-35.92 14.10-35.72Q15.13-35.53 15.95-35.25Q16.78-34.98 17.39-34.71Q18.01-34.44 18.40-34.27L18.40-34.27Z" transform="translate(-2.5094066570188125, 35.91895803183791)"></path>
              </g>
            </g>
          </g>
          <g transform="translate(19.885672937771343, 0)">
            <g data-gra="path-name" fill="#007FB8" transform="translate(0,3)">
              <g transform="scale(1)">
                <path d="M8.22-24.70L8.22-11.98Q8.71-11.91 9.19-11.85Q9.67-11.78 10.14-11.78L10.14-11.78Q11.54-11.78 12.71-12.21Q13.88-12.65 14.70-13.51Q15.52-14.37 15.98-15.70Q16.43-17.02 16.43-18.80L16.43-18.80Q16.43-20.22 16.11-21.38Q15.79-22.54 15.17-23.36Q14.54-24.18 13.60-24.64Q12.67-25.09 11.44-25.09L11.44-25.09Q10.65-25.09 10.05-25.03Q9.45-24.97 9.03-24.90L9.03-24.90Q8.56-24.80 8.22-24.70L8.22-24.70ZM8.22-10.28L8.22-10.28Q8.22-8.07 8.27-6.40Q8.32-4.72 8.40-3.51Q8.49-2.29 8.61-1.45Q8.73-0.62 8.91-0.10L8.91-0.10L8.91 0L3.22 0L3.22-0.10Q3.40-0.62 3.53-1.43Q3.67-2.24 3.75-3.43Q3.84-4.63 3.89-6.27Q3.94-7.92 3.94-10.14L3.94-10.14L3.94-16.34Q3.94-18.55 3.89-20.19Q3.84-21.82 3.75-23.02Q3.67-24.21 3.53-25.02Q3.40-25.83 3.22-26.35L3.22-26.35L3.22-26.45Q3.76-26.42 4.31-26.40L4.31-26.40Q4.77-26.37 5.30-26.36Q5.83-26.35 6.30-26.35L6.30-26.35Q7.09-26.35 8.62-26.50Q10.16-26.64 12.25-26.64L12.25-26.64Q14.17-26.64 15.82-26.14Q17.47-25.64 18.66-24.65Q19.85-23.67 20.53-22.25Q21.21-20.84 21.21-18.99L21.21-18.99Q21.21-16.83 20.37-15.17Q19.53-13.51 18.09-12.39Q16.66-11.27 14.71-10.70Q12.77-10.14 10.58-10.14L10.58-10.14Q9.42-10.14 8.22-10.28Z" transform="translate(-3.22286541244573, 35.91895803183791)"></path>
              </g>
            </g>
          </g>
          <g transform="translate(39.8697539797395, 0)">
            <g data-gra="path-name" fill="#007FB8" transform="translate(0,3)">
              <g transform="scale(1)">
                <path d="M3.22-26.45L3.22-26.45Q5.63-26.45 8.17-26.46Q10.70-26.47 12.87-26.51Q15.03-26.55 16.59-26.59Q18.16-26.64 18.65-26.74L18.65-26.74L17.69-24.09Q17.02-24.26 16.19-24.41L16.19-24.41Q15.45-24.53 14.40-24.64Q13.36-24.75 11.98-24.75L11.98-24.75Q11.49-24.75 10.85-24.71Q10.21-24.68 9.62-24.63L9.62-24.63Q8.93-24.58 8.22-24.53L8.22-24.53L8.22-14.81Q10.21-14.84 11.81-14.91Q13.41-14.98 14.54-15.11L14.54-15.11Q15.87-15.20 16.88-15.38L16.88-15.38L16.29-12.45Q14.93-12.62 13.56-12.74L13.56-12.74Q12.37-12.87 10.95-12.95Q9.52-13.04 8.22-13.04L8.22-13.04L8.22-1.87Q10.51-1.87 12.42-2.05Q14.34-2.24 15.77-2.46L15.77-2.46Q17.44-2.73 18.80-3.08L18.80-3.08L18.23 0.15Q17.86 0.12 17.04 0.09Q16.21 0.05 15.31 0.04Q14.42 0.02 13.63 0.01Q12.84 0 12.55 0L12.55 0L3.22 0L3.22-0.10Q3.40-0.62 3.53-1.43Q3.67-2.24 3.75-3.43Q3.84-4.63 3.89-6.27Q3.94-7.92 3.94-10.14L3.94-10.14L3.94-16.34Q3.94-18.55 3.89-20.19Q3.84-21.82 3.75-23.02Q3.67-24.21 3.53-25.02Q3.40-25.83 3.22-26.35L3.22-26.35L3.22-26.45Z" transform="translate(-3.22286541244573, 35.91895803183791)"></path>
              </g>
            </g>
          </g>
          <g transform="translate(57.44283646888566, 0)">
            <g data-gra="path-name" fill="#007FB8" transform="translate(0,3)">
              <g transform="scale(1)">
                <path d="M26.87-16.34L26.87 0.34L25.91 0.34L6.35-18.89L6.35-10.14Q6.35-7.92 6.37-6.27Q6.40-4.63 6.46-3.43Q6.52-2.24 6.63-1.43Q6.74-0.62 6.91-0.10L6.91-0.10L6.91 0L3.22 0L3.22-0.10Q3.40-0.62 3.52-1.43Q3.64-2.24 3.71-3.43Q3.79-4.63 3.81-6.27Q3.84-7.92 3.84-10.14L3.84-10.14L3.84-16.34Q3.84-18.55 3.81-20.19Q3.79-21.82 3.71-23.02Q3.64-24.21 3.52-25.02Q3.40-25.83 3.22-26.35L3.22-26.35L3.22-26.45L4.75-26.45L24.33-7.11L24.33-16.34Q24.33-18.55 24.31-20.19Q24.28-21.82 24.22-23.02Q24.16-24.21 24.06-25.02Q23.96-25.83 23.79-26.35L23.79-26.35L23.79-26.45L27.46-26.45L27.46-26.35Q27.28-25.83 27.17-25.02Q27.06-24.21 26.99-23.02Q26.91-21.82 26.89-20.19Q26.87-18.55 26.87-16.34L26.87-16.34Z" transform="translate(-3.22286541244573, 35.91895803183791)"></path>
              </g>
            </g>
          </g>
          <g transform="translate(83.67583212735164, 0)">
            <g data-gra="path-name" fill="#007FB8" transform="translate(0,3)">
              <g transform="scale(1)">
                <path d="M8.32-24.70L8.32-24.70Q8.29-22.68 8.27-20.79L8.27-20.79Q8.27-19.98 8.25-19.13Q8.24-18.28 8.23-17.44Q8.22-16.61 8.22-15.86Q8.22-15.11 8.22-14.52L8.22-14.52Q8.22-13.29 8.23-11.55Q8.24-9.82 8.27-8.00Q8.29-6.18 8.34-4.49Q8.39-2.80 8.46-1.67L8.46-1.67Q8.71-1.62 9.10-1.59Q9.50-1.55 9.93-1.51Q10.36-1.48 10.78-1.46Q11.19-1.45 11.49-1.45L11.49-1.45Q12.84-1.45 14.23-1.62Q15.62-1.80 16.91-2.28Q18.21-2.76 19.34-3.59Q20.47-4.43 21.32-5.74Q22.17-7.06 22.65-8.92Q23.13-10.78 23.13-13.31L23.13-13.31Q23.13-18.89 20.46-21.92Q17.79-24.95 12.50-24.95L12.50-24.95Q11.98-24.95 11.40-24.92Q10.82-24.90 10.26-24.86Q9.69-24.82 9.19-24.77Q8.68-24.73 8.32-24.70ZM3.22-26.40L3.22-26.50Q3.81-26.47 4.33-26.47L4.33-26.47Q4.77-26.45 5.19-26.45Q5.61-26.45 5.81-26.45L5.81-26.45Q6.15-26.45 7.04-26.47Q7.92-26.50 9.04-26.53Q10.16-26.57 11.40-26.61Q12.65-26.64 13.70-26.64L13.70-26.64Q16.58-26.64 19.19-25.98Q21.80-25.32 23.78-23.80Q25.76-22.29 26.91-19.84Q28.07-17.39 28.07-13.80L28.07-13.80Q28.07-9.94 26.74-7.26Q25.41-4.58 23.15-2.89Q20.89-1.21 17.90-0.46Q14.91 0.30 11.59 0.30L11.59 0.30Q10.80 0.30 9.62 0.25Q8.44 0.20 7.21 0.15Q5.98 0.10 4.88 0.05Q3.79 0 3.22 0L3.22 0L3.22-0.10Q3.40-0.62 3.53-1.43Q3.67-2.24 3.75-3.43Q3.84-4.63 3.89-6.27Q3.94-7.92 3.94-10.14L3.94-10.14L3.94-16.34Q3.94-18.55 3.89-20.20Q3.84-21.85 3.75-23.05Q3.67-24.26 3.53-25.07Q3.40-25.88 3.22-26.40L3.22-26.40Z" transform="translate(-3.22286541244573, 35.91895803183791)"></path>
              </g>
            </g>
          </g>
          <g transform="translate(110.52387843704773, 0)">
            <g data-gra="path-name" fill="#007FB8" transform="translate(0,3)">
              <g transform="scale(1)">
                <path d="M8.22-16.34L8.22-1.92Q10.51-1.92 12.44-2.10Q14.37-2.29 15.82-2.51L15.82-2.51Q17.52-2.78 18.89-3.12L18.89-3.12L18.33 0.15Q17.98 0.12 17.16 0.09Q16.34 0.05 15.43 0.04Q14.52 0.02 13.73 0.01Q12.94 0 12.65 0L12.65 0L3.22 0L3.22-0.10Q3.40-0.62 3.53-1.43Q3.67-2.24 3.75-3.43Q3.84-4.63 3.89-6.27Q3.94-7.92 3.94-10.14L3.94-10.14L3.94-16.34Q3.94-18.55 3.89-20.19Q3.84-21.82 3.75-23.02Q3.67-24.21 3.53-25.02Q3.40-25.83 3.22-26.35L3.22-26.35L3.22-26.45L8.91-26.45L8.91-26.35Q8.73-25.83 8.61-25.02Q8.49-24.21 8.40-23.02Q8.32-21.82 8.27-20.19Q8.22-18.55 8.22-16.34L8.22-16.34Z" transform="translate(-3.22286541244573, 35.91895803183791)"></path>
              </g>
            </g>
          </g>
          <g transform="translate(128.1953690303907, 0)">
            <g data-gra="path-name" fill="#007FB8" transform="translate(0,3)">
              <g transform="scale(1)">
                <path d="M14.81-12.20L14.81-10.14Q14.81-7.92 14.86-6.27Q14.91-4.63 14.99-3.43Q15.08-2.24 15.22-1.43Q15.35-0.62 15.52-0.10L15.52-0.10L15.52 0L9.82 0L9.82-0.10Q9.99-0.62 10.12-1.43Q10.26-2.24 10.35-3.43Q10.43-4.63 10.48-6.27Q10.53-7.92 10.53-10.14L10.53-10.14L10.53-11.83L1.67-23.52Q0.79-24.70-0.02-25.43Q-0.84-26.15-1.25-26.35L-1.25-26.35L-1.25-26.45L5.73-26.45Q5.73-26.00 6.05-25.08Q6.37-24.16 7.36-22.83L7.36-22.83L13.60-14.56L20.00-23.18Q20.69-24.11 21.05-25.02Q21.40-25.93 21.40-26.45L21.40-26.45L25.91-26.45L25.91-26.35Q25.29-25.93 24.64-25.29Q23.99-24.65 23.13-23.47L23.13-23.47L14.81-12.20Z" transform="translate(1.2547033285094062, 35.91895803183791)"></path>
              </g>
            </g>
          </g>
        </g>
      </g>
    </g>
  </svg>